<mxfile host="app.diagrams.net" modified="2023-11-17T07:10:22.443Z" agent="Mozilla/5.0 (Macintosh; Intel Mac OS X 10_15_7) AppleWebKit/605.1.15 (KHTML, like Gecko) Version/16.5.2 Safari/605.1.15" etag="CvDzFnVpK2m5oXo0VB07" version="22.1.2" type="device">
  <diagram name="Page-1" id="PV-sUcWRaYxeBATs_WEL">
    <mxGraphModel dx="1122" dy="761" grid="1" gridSize="10" guides="1" tooltips="1" connect="1" arrows="1" fold="1" page="1" pageScale="1" pageWidth="850" pageHeight="1100" math="0" shadow="0">
      <root>
        <mxCell id="0" />
        <mxCell id="1" parent="0" />
        <mxCell id="HKYSKYlHdaH3575LPUU4-39" value="Algorithm" style="swimlane;startSize=40;horizontal=1;containerType=tree;fillColor=#dae8fc;strokeColor=#6c8ebf;swimlaneFillColor=default;fontSize=22;" vertex="1" parent="1">
          <mxGeometry x="190" y="120" width="560" height="720" as="geometry" />
        </mxCell>
        <mxCell id="HKYSKYlHdaH3575LPUU4-19" style="edgeStyle=orthogonalEdgeStyle;rounded=0;orthogonalLoop=1;jettySize=auto;html=1;exitX=0.5;exitY=1;exitDx=0;exitDy=0;entryX=0.5;entryY=0;entryDx=0;entryDy=0;fillColor=#fff2cc;strokeColor=#0A0904;strokeWidth=2;endArrow=block;endFill=1;startArrow=diamond;startFill=0;" edge="1" parent="1" source="HKYSKYlHdaH3575LPUU4-7" target="HKYSKYlHdaH3575LPUU4-8">
          <mxGeometry relative="1" as="geometry" />
        </mxCell>
        <mxCell id="HKYSKYlHdaH3575LPUU4-7" value="Speeds" style="rounded=1;whiteSpace=wrap;html=1;fillColor=#fff2cc;strokeColor=#d6b656;" vertex="1" parent="1">
          <mxGeometry x="410" y="200" width="120" height="60" as="geometry" />
        </mxCell>
        <mxCell id="HKYSKYlHdaH3575LPUU4-20" style="edgeStyle=orthogonalEdgeStyle;rounded=0;orthogonalLoop=1;jettySize=auto;html=1;exitX=0.5;exitY=1;exitDx=0;exitDy=0;entryX=0.5;entryY=0;entryDx=0;entryDy=0;fillColor=#fff2cc;strokeColor=#0A0904;strokeWidth=2;endArrow=block;endFill=1;startArrow=diamond;startFill=0;" edge="1" parent="1" source="HKYSKYlHdaH3575LPUU4-8" target="HKYSKYlHdaH3575LPUU4-13">
          <mxGeometry relative="1" as="geometry" />
        </mxCell>
        <mxCell id="HKYSKYlHdaH3575LPUU4-21" style="edgeStyle=orthogonalEdgeStyle;rounded=0;orthogonalLoop=1;jettySize=auto;html=1;exitX=0.5;exitY=1;exitDx=0;exitDy=0;entryX=0.5;entryY=0;entryDx=0;entryDy=0;fillColor=#fff2cc;strokeColor=#0A0904;strokeWidth=2;endArrow=block;endFill=1;startArrow=diamond;startFill=0;" edge="1" parent="1" source="HKYSKYlHdaH3575LPUU4-8" target="HKYSKYlHdaH3575LPUU4-14">
          <mxGeometry relative="1" as="geometry" />
        </mxCell>
        <mxCell id="HKYSKYlHdaH3575LPUU4-8" value="Theoretical Position" style="rounded=0;whiteSpace=wrap;html=1;fillColor=#fff2cc;strokeColor=#d6b656;" vertex="1" parent="1">
          <mxGeometry x="410" y="290" width="120" height="60" as="geometry" />
        </mxCell>
        <mxCell id="HKYSKYlHdaH3575LPUU4-22" style="edgeStyle=orthogonalEdgeStyle;rounded=0;orthogonalLoop=1;jettySize=auto;html=1;exitX=0.5;exitY=1;exitDx=0;exitDy=0;entryX=0.5;entryY=0;entryDx=0;entryDy=0;fillColor=#fff2cc;strokeColor=#0A0904;strokeWidth=2;endArrow=block;endFill=1;startArrow=diamond;startFill=0;" edge="1" parent="1" source="HKYSKYlHdaH3575LPUU4-13" target="HKYSKYlHdaH3575LPUU4-16">
          <mxGeometry relative="1" as="geometry" />
        </mxCell>
        <mxCell id="HKYSKYlHdaH3575LPUU4-27" style="edgeStyle=orthogonalEdgeStyle;rounded=0;orthogonalLoop=1;jettySize=auto;html=1;entryX=0.25;entryY=0;entryDx=0;entryDy=0;fillColor=#fff2cc;strokeColor=#0A0904;strokeWidth=2;endArrow=block;endFill=1;startArrow=diamond;startFill=0;" edge="1" parent="1" source="HKYSKYlHdaH3575LPUU4-13" target="HKYSKYlHdaH3575LPUU4-17">
          <mxGeometry relative="1" as="geometry" />
        </mxCell>
        <mxCell id="HKYSKYlHdaH3575LPUU4-13" value="GIS" style="shape=process;whiteSpace=wrap;html=1;backgroundOutline=1;fillColor=#fff2cc;strokeColor=#d6b656;" vertex="1" parent="1">
          <mxGeometry x="330" y="400" width="120" height="60" as="geometry" />
        </mxCell>
        <mxCell id="HKYSKYlHdaH3575LPUU4-25" style="edgeStyle=orthogonalEdgeStyle;rounded=0;orthogonalLoop=1;jettySize=auto;html=1;entryX=0.5;entryY=0;entryDx=0;entryDy=0;fillColor=#fff2cc;strokeColor=#0A0904;strokeWidth=2;endArrow=block;endFill=1;startArrow=diamond;startFill=0;" edge="1" parent="1" source="HKYSKYlHdaH3575LPUU4-14" target="HKYSKYlHdaH3575LPUU4-18">
          <mxGeometry relative="1" as="geometry" />
        </mxCell>
        <mxCell id="HKYSKYlHdaH3575LPUU4-26" style="edgeStyle=orthogonalEdgeStyle;rounded=0;orthogonalLoop=1;jettySize=auto;html=1;entryX=0.75;entryY=0;entryDx=0;entryDy=0;fillColor=#fff2cc;strokeColor=#0A0904;strokeWidth=2;endArrow=block;endFill=1;startArrow=diamond;startFill=0;" edge="1" parent="1" source="HKYSKYlHdaH3575LPUU4-14" target="HKYSKYlHdaH3575LPUU4-17">
          <mxGeometry relative="1" as="geometry" />
        </mxCell>
        <mxCell id="HKYSKYlHdaH3575LPUU4-14" value="Weather" style="shape=process;whiteSpace=wrap;html=1;backgroundOutline=1;fillColor=#fff2cc;strokeColor=#d6b656;" vertex="1" parent="1">
          <mxGeometry x="490" y="400" width="120" height="60" as="geometry" />
        </mxCell>
        <mxCell id="HKYSKYlHdaH3575LPUU4-30" style="edgeStyle=orthogonalEdgeStyle;rounded=0;orthogonalLoop=1;jettySize=auto;html=1;entryX=0.25;entryY=0;entryDx=0;entryDy=0;fillColor=#fff2cc;strokeColor=#0A0904;strokeWidth=2;endArrow=block;endFill=1;startArrow=diamond;startFill=0;" edge="1" parent="1" source="HKYSKYlHdaH3575LPUU4-16" target="HKYSKYlHdaH3575LPUU4-28">
          <mxGeometry relative="1" as="geometry" />
        </mxCell>
        <mxCell id="HKYSKYlHdaH3575LPUU4-16" value="Road Conditions" style="rounded=0;whiteSpace=wrap;html=1;fillColor=#fff2cc;strokeColor=#d6b656;" vertex="1" parent="1">
          <mxGeometry x="240" y="520" width="120" height="60" as="geometry" />
        </mxCell>
        <mxCell id="HKYSKYlHdaH3575LPUU4-44" style="edgeStyle=orthogonalEdgeStyle;rounded=0;orthogonalLoop=1;jettySize=auto;html=1;exitX=0.25;exitY=1;exitDx=0;exitDy=0;entryX=0.75;entryY=0;entryDx=0;entryDy=0;strokeWidth=2;endArrow=block;endFill=1;startArrow=diamond;startFill=0;" edge="1" parent="1" source="HKYSKYlHdaH3575LPUU4-17" target="HKYSKYlHdaH3575LPUU4-28">
          <mxGeometry relative="1" as="geometry" />
        </mxCell>
        <mxCell id="HKYSKYlHdaH3575LPUU4-45" style="edgeStyle=orthogonalEdgeStyle;rounded=0;orthogonalLoop=1;jettySize=auto;html=1;exitX=0.75;exitY=1;exitDx=0;exitDy=0;entryX=0.25;entryY=0;entryDx=0;entryDy=0;strokeWidth=2;endArrow=block;endFill=1;startArrow=diamond;startFill=0;" edge="1" parent="1" source="HKYSKYlHdaH3575LPUU4-17" target="HKYSKYlHdaH3575LPUU4-29">
          <mxGeometry relative="1" as="geometry" />
        </mxCell>
        <mxCell id="HKYSKYlHdaH3575LPUU4-17" value="Atmospheric Conditions" style="rounded=0;whiteSpace=wrap;html=1;fillColor=#fff2cc;strokeColor=#d6b656;" vertex="1" parent="1">
          <mxGeometry x="410" y="520" width="120" height="60" as="geometry" />
        </mxCell>
        <mxCell id="HKYSKYlHdaH3575LPUU4-46" style="edgeStyle=orthogonalEdgeStyle;rounded=0;orthogonalLoop=1;jettySize=auto;html=1;exitX=0.5;exitY=1;exitDx=0;exitDy=0;strokeWidth=2;endArrow=block;endFill=1;startArrow=diamond;startFill=0;" edge="1" parent="1" source="HKYSKYlHdaH3575LPUU4-18">
          <mxGeometry relative="1" as="geometry">
            <mxPoint x="570" y="630" as="targetPoint" />
          </mxGeometry>
        </mxCell>
        <mxCell id="HKYSKYlHdaH3575LPUU4-18" value="Solar Conditions" style="rounded=0;whiteSpace=wrap;html=1;fillColor=#fff2cc;strokeColor=#d6b656;" vertex="1" parent="1">
          <mxGeometry x="580" y="520" width="120" height="60" as="geometry" />
        </mxCell>
        <mxCell id="HKYSKYlHdaH3575LPUU4-35" style="edgeStyle=orthogonalEdgeStyle;rounded=0;orthogonalLoop=1;jettySize=auto;html=1;entryX=0.25;entryY=0;entryDx=0;entryDy=0;fillColor=#fff2cc;strokeColor=#0A0904;strokeWidth=2;endArrow=block;endFill=1;startArrow=diamond;startFill=0;" edge="1" parent="1" source="HKYSKYlHdaH3575LPUU4-28" target="HKYSKYlHdaH3575LPUU4-33">
          <mxGeometry relative="1" as="geometry" />
        </mxCell>
        <mxCell id="HKYSKYlHdaH3575LPUU4-28" value="Consumed Energy" style="rounded=0;whiteSpace=wrap;html=1;fillColor=#fff2cc;strokeColor=#d6b656;" vertex="1" parent="1">
          <mxGeometry x="320" y="630" width="120" height="60" as="geometry" />
        </mxCell>
        <mxCell id="HKYSKYlHdaH3575LPUU4-38" style="edgeStyle=orthogonalEdgeStyle;rounded=0;orthogonalLoop=1;jettySize=auto;html=1;exitX=0.5;exitY=1;exitDx=0;exitDy=0;entryX=0.75;entryY=0;entryDx=0;entryDy=0;fillColor=#fff2cc;strokeColor=#0A0904;strokeWidth=2;endArrow=block;endFill=1;startArrow=diamond;startFill=0;" edge="1" parent="1" source="HKYSKYlHdaH3575LPUU4-29" target="HKYSKYlHdaH3575LPUU4-33">
          <mxGeometry relative="1" as="geometry" />
        </mxCell>
        <mxCell id="HKYSKYlHdaH3575LPUU4-29" value="Produced Energy" style="rounded=0;whiteSpace=wrap;html=1;fillColor=#fff2cc;strokeColor=#d6b656;" vertex="1" parent="1">
          <mxGeometry x="490" y="630" width="120" height="60" as="geometry" />
        </mxCell>
        <mxCell id="HKYSKYlHdaH3575LPUU4-33" value="&lt;span style=&quot;white-space: pre;&quot;&gt;State of Charge&lt;/span&gt;" style="rounded=0;whiteSpace=wrap;html=1;fillColor=#fff2cc;strokeColor=#d6b656;" vertex="1" parent="1">
          <mxGeometry x="410" y="750" width="120" height="60" as="geometry" />
        </mxCell>
      </root>
    </mxGraphModel>
  </diagram>
</mxfile>
